<?xml version="1.0" encoding="UTF-8"?>
<svg id="Layer_1" xmlns="http://www.w3.org/2000/svg" viewBox="0 0 82.46 75.43">
  <defs>
    <style>
      .cls-1 {
        fill: none;
      }

      .cls-2 {
        font-family: Gotham-Black, 'Gotham Black';
        font-size: 28.59px;
        font-weight: 800;
      }

      .cls-2, .cls-3, .cls-4 {
        fill: #101035;
      }

      .cls-5 {
        fill: #7fc5d7;
      }

      .cls-6 {
        fill: #ddebeb;
      }

      .cls-7 {
        fill: #2f531d;
      }

      .cls-4 {
        stroke: #101035;
        stroke-miterlimit: 10;
        stroke-width: .25px;
      }
    </style>
  </defs>
  <path class="cls-1" d="M72.82,45.41l-.63-4.62c.17,1.38.36,2.76.55,4.14.03.2.05.36.08.48Z"/>
  <path class="cls-1" d="M10.09,47.86s0,0,0,0c0,0,9.51,0,21.03,0h0c-7.01,0-14.02,0-21.04,0Z"/>
  <path class="cls-1" d="M18.44,37.22c2.06.04,3.78-1.58,3.83-3.6.04-2.08-1.62-3.81-3.72-3.84-2.01-.03-3.76,1.62-3.79,3.59-.03,2.15,1.55,3.81,3.68,3.85ZM18.5,30.49s.03,0,.04,0c.81.01,1.57.34,2.13.93.56.58.86,1.34.84,2.15-.03,1.61-1.41,2.9-3.06,2.87-1.7-.03-2.97-1.36-2.94-3.09.02-1.53,1.41-2.85,2.98-2.85Z"/>
  <polygon class="cls-1" points="21.84 37.43 22.75 37.43 21.85 37.39 21.84 37.43"/>
  <path class="cls-1" d="M25,40.62c-.03-.18-.18-.4-.33-.49-3.76-2.18-7.6-2.31-11.52-.46-.77.36-1.23.82-1.26,1.75-.04,1.11-.26,2.22-.42,3.43.76,0,1.42,0,2.07,0,3.79,0,7.58,0,11.37,0,.32,0,.67.07.6-.47-.17-1.25-.31-2.51-.5-3.76ZM12.33,44.05c.01-.08.02-.15.03-.22.12-.83.24-1.61.27-2.42.02-.55.21-.81.83-1.1,3.74-1.76,7.27-1.62,10.8.42,0,0,0,0,0,0,.1.68.19,1.38.27,2.05.05.43.11.86.17,1.29h-12.38Z"/>
  <path class="cls-1" d="M71.42,47.86s.02,0,.04,0c-1.25,0-2.5,0-3.75,0,2.09,0,3.43,0,3.72,0Z"/>
  <path class="cls-1" d="M30.96,31.68s0-.01,0-.02c0,.01,0,.02,0,.02Z"/>
  <path class="cls-1" d="M31.12,44.79h19.88c.14-.09.14-.28.11-.53-.59-4.42-1.17-8.85-1.74-13.27-.05-.36-.21-.57-.51-.75-1.37-.79-2.8-1.44-4.35-1.78-3.82-.85-7.42-.3-10.82,1.62-.54.31-.75.7-.83,1.3-.5,3.95-1.04,7.89-1.56,11.83-.07.52-.12,1.05-.18,1.57ZM32.05,43.27c.15-1.12.3-2.23.45-3.34.37-2.78.76-5.66,1.11-8.49.05-.41.15-.57.45-.74,3.28-1.85,6.65-2.35,10.29-1.54,1.32.29,2.67.85,4.13,1.7.13.07.13.09.14.19h0c.49,3.81,1.03,7.93,1.69,12.95h-18.36c.03-.24.06-.48.09-.72Z"/>
  <path class="cls-1" d="M70.79,44.52c-.17-1.33-.34-2.65-.54-3.97-.02-.16-.19-.34-.34-.43-3.58-2.1-7.28-2.25-11.1-.66-1.06.44-1.81,1.04-1.69,2.31,0,.09-.02.18-.03.26-.12.91-.24,1.83-.37,2.78h14.03c.01-.13.04-.21.03-.3ZM57.58,44.02l.25-1.93v-.04c.03-.09.05-.23.04-.39-.06-.64.12-1.08,1.23-1.55,3.68-1.54,7.09-1.34,10.42.61.16,1.1.31,2.22.45,3.3h-12.39Z"/>
  <path class="cls-1" d="M63.75,37.22c2.13-.03,3.81-1.68,3.78-3.7-.04-2.14-1.72-3.77-3.87-3.74-2,.03-3.66,1.74-3.63,3.74.03,2.08,1.68,3.72,3.72,3.69ZM63.67,30.49s.04,0,.05,0c1.71,0,3.02,1.28,3.05,3h0c.01.74-.27,1.45-.8,1.99-.58.6-1.37.93-2.24.94-.01,0-.03,0-.04,0-1.62,0-2.9-1.29-2.92-2.95-.02-1.59,1.3-2.96,2.89-2.98Z"/>
  <g>
    <path class="cls-6" d="M63.7,35.42s.03,0,.04,0c.87-.01,1.66-.35,2.24-.94.53-.54.81-1.25.8-1.99h0c-.03-1.72-1.34-3-3.05-3-.02,0-.04,0-.05,0-1.59.02-2.91,1.39-2.89,2.98.02,1.66,1.3,2.95,2.92,2.95Z"/>
    <path class="cls-6" d="M59.11,40.1c-1.11.46-1.29.9-1.23,1.55.01.17-.01.3-.03.39v.04s-.26,1.93-.26,1.93h12.39c-.14-1.08-.29-2.2-.45-3.3-3.33-1.95-6.74-2.15-10.42-.61Z"/>
    <path class="cls-6" d="M18.46,35.42c1.65.04,3.03-1.25,3.06-2.87.02-.8-.28-1.57-.84-2.15-.56-.58-1.32-.91-2.13-.93-.01,0-.03,0-.04,0-1.57,0-2.96,1.32-2.98,2.85-.03,1.73,1.24,3.05,2.94,3.09Z"/>
    <path class="cls-6" d="M24.27,40.72s0,0,0,0c-3.53-2.04-7.06-2.18-10.8-.42-.62.29-.81.55-.83,1.1-.03.81-.15,1.6-.27,2.42-.01.07-.02.15-.03.22h12.38c-.06-.42-.11-.85-.17-1.28-.09-.67-.17-1.37-.27-2.05Z"/>
  </g>
  <path class="cls-7" d="M12.81,32.71l.98-2.51c-.53.74-.86,1.58-.98,2.51Z"/>
  <text class="cls-2" transform="translate(7.91 69.11) scale(1.08 1)"><tspan x="0" y="0">MLS</tspan></text>
  <g>
    <path class="cls-3" d="M23.27,29.29l.92,2.36c-.14-.87-.47-1.68-.92-2.36Z"/>
    <path class="cls-3" d="M30.96,30.66s0,.01,0,.02c-.61,4.56-1.22,9.12-1.81,13.69-.05.38-.21.54-.59.49-.11-.01-.22-.02-.32,0-.5.08-.68-.13-.73-.64-.15-1.44-.37-2.87-.55-4.3-.07-.55-.28-.98-.79-1.25-1.23-.63-2.47-1.27-3.71-1.91.11-.11.2-.22.29-.33h-.9v-.05s0,0,0,0l1.3-7.26c-.24-.34-.5-.64-.79-.9-2.13-1.91-5.43-1.98-7.61-.08-.34.29-.63.61-.89.95l1.32,7.34h-.87c.12.14.25.28.39.41-.48.19-.9.32-1.29.51-.89.45-1.77.92-2.65,1.39-.41.22-.6.58-.66,1.04-.08.63-.17,1.26-.25,1.89h0s0,0-.33,2.57c-.32,2.53.54,2.61.56,2.61,7.01,0,14.02,0,21.04,0h0c13.35,0,29.41,0,36.58,0,1.25,0,2.5,0,3.75,0,2.1-.02,1.48-1.66,1.48-1.66l-.11-.79c-.03-.12-.05-.28-.08-.48-.19-1.38-.38-2.76-.55-4.14-.06-.48-.27-.85-.7-1.07-1.13-.56-2.27-1.12-3.4-1.68-.14-.07-.28-.12-.5-.2,1.51-1.5,2.18-3.25,1.84-5.32-.23-1.41-.92-2.59-2.03-3.48-2.3-1.86-5.63-1.68-7.68.37-2.1,2.1-2.48,5.76.21,8.43-.13.06-.25.12-.37.17-.66.27-1.34.51-1.98.81-1.96.9-2.08,1.07-2.36,3.2-.14,1.06-.31,2.12-.41,3.18-.05.48-.2.68-.72.66-.97-.05-.83.07-.96-.86-.56-4.19-1.11-8.38-1.67-12.57,0,0,0,0,0,0-.24-1.88-1.9-3.03-2.08-3.16-1.2-.54-2.42-1.06-3.63-1.58-.09-.04-.18-.08-.35-.16,1.73-1.68,2.54-3.65,2.14-6.02-.25-1.46-.91-2.72-2.03-3.68-.37-.31-.75-.58-1.14-.81-2.04-1.18-4.4-1.18-6.42,0-.41.24-.8.52-1.17.85-1.43,1.27-2.12,2.93-2.08,4.87.04,1.9.85,3.46,2.27,4.82-.36.12-.63.19-.88.3-1.08.47-2.15.97-3.23,1.43,0,0-.01,0-.02.01-1.72.76-1.84,2.15-1.85,2.33ZM14.76,32.37c.03-1.97,1.78-3.62,3.79-3.59,2.09.03,3.76,1.76,3.72,3.84-.04,2.02-1.76,3.64-3.83,3.6-2.13-.04-3.71-1.7-3.68-3.85ZM24.9,44.86c-3.79,0-7.58,0-11.37,0-.66,0-1.31,0-2.07,0,.16-1.21.38-2.31.42-3.43.03-.93.49-1.39,1.26-1.75,3.93-1.85,7.77-1.72,11.52.46.16.09.31.31.33.49.18,1.25.32,2.51.5,3.76.07.54-.28.47-.6.47ZM63.66,28.78c2.14-.03,3.83,1.6,3.87,3.74.04,2.02-1.65,3.67-3.78,3.7-2.04.03-3.69-1.61-3.72-3.69-.03-2,1.63-3.71,3.63-3.74ZM57.09,42.03c.01-.09.04-.18.03-.26-.11-1.27.63-1.86,1.69-2.31,3.81-1.59,7.51-1.44,11.1.66.15.09.32.27.34.43.2,1.32.37,2.65.54,3.97.01.08-.02.17-.03.3h-14.03c.13-.96.25-1.87.37-2.78ZM36.68,21.59c-.02-2.4,1.99-4.41,4.44-4.42,2.49,0,4.49,1.97,4.5,4.48.02,2.39-2.01,4.41-4.45,4.42-2.5.02-4.47-1.95-4.49-4.48ZM33.69,30.09c3.41-1.92,7-2.47,10.82-1.62,1.55.35,2.98.99,4.35,1.78.31.18.47.39.51.75.57,4.42,1.15,8.85,1.74,13.27.03.25.03.43-.11.53h-19.88c.06-.53.12-1.05.18-1.57.52-3.94,1.06-7.89,1.56-11.83.08-.6.29-1,.83-1.3Z"/>
    <polygon class="cls-3" points="24.19 31.65 23.27 29.29 23.17 29.04 23.16 29.08 23.15 29.12 21.85 36.39 21.85 36.39 22.75 36.43 26.06 36.43 24.19 31.65"/>
    <polygon class="cls-3" points="13.79 29.21 12.81 31.71 10.97 36.43 14.31 36.43 15.18 36.43 13.87 29.09 13.86 29.04 13.79 29.21"/>
  </g>
  <path class="cls-3" d="M74.41,19.87L49.65,2.34c-.08-.05-.16-.11-.24-.15-5.04-2.91-11.31-2.91-16.35,0-.08.05-.16.1-.24.15L8.05,19.87C3.08,22.8,0,28.18,0,33.96c0,1.71,1.38,3.1,3.08,3.1s3.08-1.39,3.08-3.1c0-3.63,1.95-7.01,5.09-8.82.08-.05.16-.1.24-.15L36.25,7.46c3.08-1.73,6.87-1.73,9.96,0l24.75,17.52c.08.05.16.11.24.15,3.14,1.81,5.09,5.19,5.09,8.82,0,1.71,1.38,3.1,3.08,3.1s3.08-1.39,3.08-3.1c0-5.77-3.08-11.16-8.05-14.09Z"/>
  <path class="cls-5" d="M41.13,17.93h-.01c-1,0-1.94.4-2.64,1.11-.68.69-1.06,1.6-1.05,2.54.02,2.11,1.66,3.75,3.73,3.74h0c.98,0,1.91-.4,2.62-1.1.71-.7,1.09-1.61,1.08-2.56-.01-2.09-1.65-3.73-3.73-3.73Z"/>
  <path class="cls-5" d="M48.63,31.04c-.01-.1-.01-.12-.14-.19-1.46-.85-2.82-1.41-4.13-1.7-3.64-.81-7.01-.31-10.29,1.54-.3.17-.4.33-.45.74-.23,1.84-.48,3.69-.72,5.52-.13.99-.26,1.99-.39,2.97-.15,1.11-.3,2.23-.45,3.34-.03.24-.06.48-.09.72h18.36c-.34-2.55-.64-4.87-.93-7.04-.27-2.09-.53-4.04-.77-5.91h0Z"/>
  <g>
    <path class="cls-4" d="M9.82,72.68h.88c.61,0,.96.29.96.78h0c0,.51-.37.79-.97.79h-.79v1.02h-.08v-2.58ZM10.68,74.17c.55,0,.9-.25.9-.71h0c0-.45-.33-.71-.89-.71h-.79v1.42h.79Z"/>
    <path class="cls-4" d="M15.9,72.68h1.02c.33,0,.56.08.72.24.11.12.18.28.18.48h0c0,.44-.34.7-.82.73l.83,1.13h-.1l-.83-1.13h-.93v1.13h-.08v-2.58ZM16.89,74.06c.58,0,.86-.28.86-.65h0c0-.42-.31-.66-.82-.66h-.94v1.31h.9Z"/>
    <path class="cls-4" d="M22.02,73.97h0c0-.71.49-1.34,1.24-1.34s1.24.63,1.24,1.33h0c0,.71-.49,1.34-1.24,1.34s-1.24-.63-1.24-1.33ZM24.43,73.98h0c0-.67-.47-1.27-1.17-1.27s-1.16.59-1.16,1.26h0c0,.67.47,1.27,1.17,1.27s1.16-.59,1.16-1.26Z"/>
    <path class="cls-4" d="M28.83,72.68h.88c.61,0,.96.29.96.78h0c0,.51-.37.79-.97.79h-.79v1.02h-.08v-2.58ZM29.69,74.17c.55,0,.9-.25.9-.71h0c0-.45-.33-.71-.89-.71h-.79v1.42h.79Z"/>
    <path class="cls-4" d="M34.94,72.68h.08v2.58h-.08v-2.58Z"/>
    <path class="cls-4" d="M39.48,72.68h1.75v.07h-1.67v1.17h1.51v.07h-1.51v1.19h1.69v.07h-1.76v-2.58Z"/>
    <path class="cls-4" d="M45.54,72.68h.8c.79,0,1.33.56,1.33,1.29h0c0,.73-.54,1.3-1.33,1.3h-.8v-2.58ZM46.34,75.19c.74,0,1.25-.54,1.25-1.21h0c0-.69-.51-1.23-1.25-1.23h-.72v2.44h.73Z"/>
    <path class="cls-4" d="M52.8,72.66h.07l1.2,2.6h-.09l-.36-.78h-1.59l-.36.78h-.08l1.2-2.6ZM53.59,74.41l-.76-1.65-.76,1.65h1.52Z"/>
    <path class="cls-4" d="M58.27,72.68h.8c.79,0,1.33.56,1.33,1.29h0c0,.73-.54,1.3-1.33,1.3h-.8v-2.58ZM59.08,75.19c.74,0,1.25-.54,1.25-1.21h0c0-.69-.51-1.23-1.25-1.23h-.72v2.44h.73Z"/>
    <path class="cls-4" d="M64.73,72.68h1.75v.07h-1.67v1.17h1.51v.07h-1.51v1.19h1.68v.07h-1.76v-2.58Z"/>
    <path class="cls-4" d="M70.61,74.88l.06-.06c.25.25.58.4.94.4.47,0,.77-.26.77-.61h0c0-.32-.19-.49-.82-.63-.62-.13-.85-.32-.85-.68h0c0-.37.34-.67.81-.67.33,0,.62.12.85.3l-.05.07c-.22-.17-.5-.29-.81-.29-.44,0-.73.28-.73.58h0c0,.32.19.49.81.62.65.14.86.34.86.69h0c0,.39-.32.69-.85.69-.38,0-.72-.15-.99-.41Z"/>
  </g>
</svg>