<?xml version="1.0" encoding="UTF-8"?>
<svg id="Layer_1" xmlns="http://www.w3.org/2000/svg" viewBox="0 0 385.49 27.68">
  <defs>
    <style>
      .cls-1 {
        fill: #101035;
        stroke: #101035;
        stroke-miterlimit: 10;
        stroke-width: .49px;
      }
    </style>
  </defs>
  <g>
    <path class="cls-1" d="M.24.69h8.18l6.66,10.18L21.74.69h8.18v26.29h-7.7v-15.1l-7.14,10.29h-.16l-7.1-10.21v15.02H.24V.69Z"/>
    <path class="cls-1" d="M34.87.69h7.74v19.9h13.52v6.38h-21.26V.69Z"/>
    <path class="cls-1" d="M57.32,23.08l4.31-4.84c2.75,2.06,5.82,3.15,9.06,3.15,2.07,0,3.19-.68,3.19-1.8v-.08c0-1.09-.92-1.69-4.71-2.52-5.94-1.28-10.53-2.85-10.53-8.26v-.08C58.64,3.77,62.75.24,69.45.24c4.75,0,8.46,1.2,11.49,3.49l-3.87,5.14c-2.55-1.69-5.35-2.59-7.82-2.59-1.87,0-2.79.75-2.79,1.69v.08c0,1.2.96,1.73,4.83,2.55,6.42,1.31,10.41,3.27,10.41,8.19v.08c0,5.37-4.51,8.56-11.29,8.56-4.95,0-9.66-1.47-13.09-4.36Z"/>
  </g>
  <g>
    <path class="cls-1" d="M94.64,1.23h9.61c6.68,0,10.51,2.91,10.51,7.72v.07c0,5-4.06,7.83-10.66,7.83h-8.59v10.12h-.86V1.23ZM104.09,16.13c6.05,0,9.81-2.5,9.81-7.06v-.07c0-4.38-3.59-7.02-9.73-7.02h-8.67v14.16h8.59Z"/>
    <path class="cls-1" d="M121.74,1.23h11.17c3.55,0,6.17.85,7.85,2.43,1.25,1.18,1.95,2.8,1.95,4.78v.07c0,4.34-3.67,6.91-8.95,7.21l9.1,11.26h-1.05l-9.06-11.22h-10.16v11.22h-.86V1.23ZM132.49,15.03c6.33,0,9.38-2.83,9.38-6.47v-.07c0-4.08-3.36-6.51-9.02-6.51h-10.23v13.06h9.88Z"/>
    <path class="cls-1" d="M149.2,14.14v-.07c0-7.02,5.31-13.28,13.6-13.28s13.59,6.25,13.59,13.28v.07c0,7.03-5.31,13.28-13.59,13.28s-13.6-6.25-13.6-13.28ZM175.53,14.18v-.07c0-6.58-5.16-12.58-12.77-12.58s-12.7,5.89-12.7,12.51v.07c0,6.58,5.16,12.58,12.77,12.58s12.7-5.89,12.7-12.51Z"/>
    <path class="cls-1" d="M184.24,1.23h9.61c6.68,0,10.51,2.91,10.51,7.72v.07c0,5-4.06,7.83-10.67,7.83h-8.59v10.12h-.86V1.23ZM193.69,16.13c6.06,0,9.81-2.5,9.81-7.06v-.07c0-4.38-3.59-7.02-9.73-7.02h-8.67v14.16h8.59Z"/>
    <path class="cls-1" d="M211.62,1.23h.86v25.75h-.86V1.23Z"/>
    <path class="cls-1" d="M221.85,1.23h19.1v.74h-18.24v11.7h16.56v.74h-16.56v11.84h18.44v.74h-19.3V1.23Z"/>
    <path class="cls-1" d="M248.65,1.23h8.79c8.6,0,14.53,5.59,14.53,12.84v.07c0,7.25-5.94,12.84-14.53,12.84h-8.79V1.23ZM257.48,26.25c8.05,0,13.63-5.33,13.63-12.06v-.07c0-6.77-5.63-12.14-13.71-12.14h-7.89v24.28h7.97Z"/>
    <path class="cls-1" d="M288.65,1.05h.74l13.17,25.93h-.94l-3.91-7.72h-17.42l-3.9,7.72h-.9l13.16-25.93ZM297.32,18.52l-8.32-16.41-8.32,16.41h16.64Z"/>
    <path class="cls-1" d="M309.03,1.23h8.79c8.6,0,14.53,5.59,14.53,12.84v.07c0,7.25-5.94,12.84-14.53,12.84h-8.79V1.23ZM317.86,26.25c8.05,0,13.63-5.33,13.63-12.06v-.07c0-6.77-5.63-12.14-13.71-12.14h-7.89v24.28h7.97Z"/>
    <path class="cls-1" d="M340.24,1.23h19.1v.74h-18.24v11.7h16.56v.74h-16.56v11.84h18.44v.74h-19.3V1.23Z"/>
    <path class="cls-1" d="M365.09,23.23l.63-.59c2.77,2.54,6.29,3.97,10.27,3.97,5.12,0,8.4-2.61,8.4-6.07v-.07c0-3.16-2.03-4.86-8.95-6.18-6.76-1.29-9.34-3.16-9.34-6.77v-.07c0-3.61,3.75-6.58,8.91-6.58,3.59,0,6.8,1.14,9.3,2.94l-.55.66c-2.42-1.73-5.47-2.87-8.83-2.87-4.81,0-7.97,2.8-7.97,5.81v.07c0,3.13,2.11,4.78,8.83,6.07,7.11,1.36,9.45,3.38,9.45,6.88v.07c0,3.83-3.55,6.84-9.34,6.84-4.18,0-7.89-1.51-10.82-4.12Z"/>
  </g>
</svg>