<?xml version="1.0" encoding="UTF-8"?>
<svg xmlns="http://www.w3.org/2000/svg" version="1.1" viewBox="0 0 200 200">
  <defs>
    <style>
      .cls-1 {
        stroke: #fff;
        stroke-miterlimit: 10;
        stroke-width: .5px;
      }

      .cls-1, .cls-2 {
        fill: #fff;
      }
    </style>
  </defs>
  <!-- Generator: Adobe Illustrator 28.6.0, SVG Export Plug-In . SVG Version: 1.2.0 Build 709)  -->
  <g>
    <g id="Layer_1">
      <polygon class="cls-2" points="64.8 99.1 66.4 99.1 64.8 99 64.8 99.1"/>
      <path class="cls-2" d="M81.2,88.7s0,0,0,0c0,0,0,0,0,0Z"/>
      <path class="cls-2" d="M48.4,90.6l1.8-4.5c-1,1.3-1.6,2.8-1.8,4.5Z"/>
      <g>
        <path class="cls-2" d="M42.5,119.5h11.4l9.3,14,9.3-14h11.4v36.2h-10.8v-20.8l-10,14.2h-.2l-9.9-14v20.7h-10.6v-36.2Z"/>
        <path class="cls-2" d="M90.9,119.5h10.8v27.4h18.9v8.8h-29.7v-36.2Z"/>
        <path class="cls-2" d="M122.3,150.3l6-6.7c3.8,2.8,8.1,4.3,12.7,4.3s4.5-.9,4.5-2.5h0c0-1.6-1.3-2.4-6.6-3.6-8.3-1.8-14.7-3.9-14.7-11.4h0c0-6.8,5.7-11.7,15.1-11.7s11.8,1.7,16.1,4.8l-5.4,7.1c-3.6-2.3-7.5-3.6-10.9-3.6s-3.9,1-3.9,2.3h0c0,1.8,1.3,2.5,6.7,3.6,9,1.8,14.6,4.5,14.6,11.3h0c0,7.5-6.3,11.9-15.8,11.9s-13.5-2-18.3-6Z"/>
      </g>
      <g>
        <path class="cls-1" d="M42.7,162.1h1.6c1.1,0,1.7.5,1.7,1.4h0c0,.9-.7,1.4-1.8,1.4h-1.4v1.8h-.1v-4.7ZM44.3,164.8c1,0,1.6-.5,1.6-1.3h0c0-.8-.6-1.3-1.6-1.3h-1.4v2.6h1.4Z"/>
        <path class="cls-1" d="M53.7,162.1h1.8c.6,0,1,.2,1.3.4.2.2.3.5.3.9h0c0,.8-.6,1.3-1.5,1.3l1.5,2h-.2l-1.5-2h-1.7v2h-.1v-4.7ZM55.5,164.6c1,0,1.5-.5,1.5-1.2h0c0-.8-.6-1.2-1.5-1.2h-1.7v2.4h1.6Z"/>
        <path class="cls-1" d="M64.7,164.4h0c0-1.3.9-2.4,2.2-2.4s2.2,1.1,2.2,2.4h0c0,1.3-.9,2.4-2.2,2.4s-2.2-1.1-2.2-2.4ZM69.1,164.4h0c0-1.2-.9-2.3-2.1-2.3s-2.1,1.1-2.1,2.3h0c0,1.2.9,2.3,2.1,2.3s2.1-1.1,2.1-2.3Z"/>
        <path class="cls-1" d="M77,162.1h1.6c1.1,0,1.7.5,1.7,1.4h0c0,.9-.7,1.4-1.8,1.4h-1.4v1.8h-.1v-4.7ZM78.6,164.8c1,0,1.6-.5,1.6-1.3h0c0-.8-.6-1.3-1.6-1.3h-1.4v2.6h1.4Z"/>
        <path class="cls-1" d="M88.1,162.1h.1v4.7h-.1v-4.7Z"/>
        <path class="cls-1" d="M96.3,162.1h3.2c0,.1-3,.1-3,.1v2.1h2.7c0,.1-2.7.1-2.7.1v2.1h3c0,.1-3.2.1-3.2.1v-4.7Z"/>
        <path class="cls-1" d="M107.2,162.1h1.5c1.4,0,2.4,1,2.4,2.3h0c0,1.3-1,2.3-2.4,2.3h-1.5v-4.7ZM108.7,166.6c1.3,0,2.3-1,2.3-2.2h0c0-1.2-.9-2.2-2.3-2.2h-1.3v4.4h1.3Z"/>
        <path class="cls-1" d="M120.3,162h.1l2.2,4.7h-.2l-.6-1.4h-2.9l-.6,1.4h-.1l2.2-4.7ZM121.8,165.2l-1.4-3-1.4,3h2.7Z"/>
        <path class="cls-1" d="M130.2,162.1h1.5c1.4,0,2.4,1,2.4,2.3h0c0,1.3-1,2.3-2.4,2.3h-1.5v-4.7ZM131.7,166.6c1.3,0,2.3-1,2.3-2.2h0c0-1.2-.9-2.2-2.3-2.2h-1.3v4.4h1.3Z"/>
        <path class="cls-1" d="M141.9,162.1h3.2c0,.1-3,.1-3,.1v2.1h2.7c0,.1-2.7.1-2.7.1v2.1h3c0,.1-3.2.1-3.2.1v-4.7Z"/>
        <path class="cls-1" d="M152.5,166h.1c.5.4,1,.6,1.7.6s1.4-.5,1.4-1.1h0c0-.6-.3-.9-1.5-1.1-1.1-.2-1.5-.6-1.5-1.2h0c0-.7.6-1.2,1.5-1.2s1.1.2,1.5.5h0c-.4-.2-.9-.4-1.5-.4-.8,0-1.3.5-1.3,1.1h0c0,.6.3.9,1.5,1.1,1.2.2,1.6.6,1.6,1.2h0c0,.7-.6,1.3-1.5,1.3s-1.3-.3-1.8-.7Z"/>
      </g>
      <g>
        <path class="cls-2" d="M67.3,84.4l1.7,4.3c-.3-1.6-.9-3-1.7-4.3Z"/>
        <path class="cls-2" d="M81.2,86.9s0,0,0,0c-1.1,8.2-2.2,16.5-3.3,24.7,0,.7-.4,1-1.1.9-.2,0-.4,0-.6,0-.9.1-1.2-.2-1.3-1.1-.3-2.6-.7-5.2-1-7.8-.1-1-.5-1.8-1.4-2.3-2.2-1.1-4.5-2.3-6.7-3.4.2-.2.4-.4.5-.6h-1.6,0q0,0,0,0l2.4-13.1c-.4-.6-.9-1.2-1.4-1.6-3.8-3.5-9.8-3.6-13.7-.1-.6.5-1.1,1.1-1.6,1.7l2.4,13.3h-1.6c.2.3.5.5.7.7-.9.3-1.6.6-2.3.9-1.6.8-3.2,1.7-4.8,2.5-.7.4-1.1,1-1.2,1.9-.1,1.1-.3,2.3-.5,3.4h0s0,0-.6,4.6c-.6,4.6,1,4.7,1,4.7,12.7,0,25.3,0,38,0h0c24.1,0,53.1,0,66.1,0,2.3,0,4.5,0,6.8,0,3.8,0,2.7-3,2.7-3l-.2-1.4c0-.2,0-.5-.1-.9-.3-2.5-.7-5-1-7.5-.1-.9-.5-1.5-1.3-1.9-2-1-4.1-2-6.1-3-.2-.1-.5-.2-.9-.4,2.7-2.7,3.9-5.9,3.3-9.6-.4-2.6-1.7-4.7-3.7-6.3-4.2-3.4-10.2-3-13.9.7-3.8,3.8-4.5,10.4.4,15.2-.2.1-.5.2-.7.3-1.2.5-2.4.9-3.6,1.5-3.5,1.6-3.8,1.9-4.3,5.8-.3,1.9-.6,3.8-.7,5.8,0,.9-.4,1.2-1.3,1.2-1.7,0-1.5.1-1.7-1.6-1-7.6-2-15.1-3-22.7,0,0,0,0,0,0-.4-3.4-3.4-5.5-3.8-5.7-2.2-1-4.4-1.9-6.6-2.9-.2,0-.3-.2-.6-.3,3.1-3,4.6-6.6,3.9-10.9-.4-2.6-1.6-4.9-3.7-6.6-.7-.6-1.4-1.1-2.1-1.5-3.7-2.1-7.9-2.1-11.6,0-.7.4-1.4.9-2.1,1.5-2.6,2.3-3.8,5.3-3.8,8.8,0,3.4,1.5,6.3,4.1,8.7-.6.2-1.1.3-1.6.5-1.9.9-3.9,1.7-5.8,2.6,0,0,0,0,0,0-3.1,1.4-3.3,3.9-3.3,4.2ZM52,90c0-3.6,3.2-6.5,6.8-6.5,3.8,0,6.8,3.2,6.7,6.9,0,3.7-3.2,6.6-6.9,6.5-3.8,0-6.7-3.1-6.6-7ZM70.3,112.5c-6.8,0-13.7,0-20.5,0-1.2,0-2.4,0-3.7,0,.3-2.2.7-4.2.8-6.2,0-1.7.9-2.5,2.3-3.2,7.1-3.3,14-3.1,20.8.8.3.2.6.6.6.9.3,2.3.6,4.5.9,6.8.1,1-.5.9-1.1.9ZM140.3,83.5c3.9,0,6.9,2.9,7,6.7,0,3.7-3,6.6-6.8,6.7-3.7,0-6.7-2.9-6.7-6.7,0-3.6,3-6.7,6.6-6.8ZM128.4,107.4c0-.2,0-.3,0-.5-.2-2.3,1.1-3.4,3.1-4.2,6.9-2.9,13.6-2.6,20,1.2.3.2.6.5.6.8.4,2.4.7,4.8,1,7.2,0,.2,0,.3,0,.5h-25.4c.2-1.7.4-3.4.7-5ZM91.5,70.5c0-4.3,3.6-8,8-8,4.5,0,8.1,3.6,8.1,8.1,0,4.3-3.6,8-8,8-4.5,0-8.1-3.5-8.1-8.1ZM86.2,85.8c6.2-3.5,12.7-4.5,19.5-2.9,2.8.6,5.4,1.8,7.8,3.2.6.3.8.7.9,1.3,1,8,2.1,16,3.1,24,0,.4,0,.8-.2,1h-35.9c.1-1,.2-1.9.3-2.8.9-7.1,1.9-14.2,2.8-21.4.1-1.1.5-1.8,1.5-2.4Z"/>
        <polygon class="cls-2" points="69 88.7 67.3 84.4 67.2 83.9 67.1 84 67.1 84.1 64.8 97.2 64.8 97.2 66.4 97.3 72.4 97.3 69 88.7"/>
        <polygon class="cls-2" points="50.2 84.2 48.4 88.8 45.1 97.3 51.1 97.3 52.7 97.3 50.3 84 50.3 83.9 50.2 84.2"/>
      </g>
      <path class="cls-2" d="M159.7,69.2l-44.7-31.7c-.1,0-.3-.2-.4-.3-9.1-5.3-20.4-5.3-29.5,0-.1,0-.3.2-.4.3l-44.7,31.7c-9,5.3-14.5,15-14.5,25.4s2.5,5.6,5.6,5.6,5.6-2.5,5.6-5.6c0-6.6,3.5-12.7,9.2-15.9.1,0,.3-.2.4-.3l44.7-31.6c5.6-3.1,12.4-3.1,18,0l44.7,31.6c.1,0,.3.2.4.3,5.7,3.3,9.2,9.4,9.2,15.9s2.5,5.6,5.6,5.6,5.6-2.5,5.6-5.6c0-10.4-5.6-20.2-14.5-25.4Z"/>
    </g>
  </g>
</svg>