<?xml version="1.0" encoding="UTF-8"?>
<svg xmlns="http://www.w3.org/2000/svg" version="1.1" viewBox="0 0 385.5 27.7">
  <defs>
    <style>
      .cls-1 {
        fill: #fff;
        stroke: #fff;
        stroke-miterlimit: 10;
      }
    </style>
  </defs>
  <!-- Generator: Adobe Illustrator 28.6.0, SVG Export Plug-In . SVG Version: 1.2.0 Build 709)  -->
  <g>
    <g id="Layer_1">
      <g>
        <path class="cls-1" d="M.2.7h8.2l6.7,10.2L21.7.7h8.2v26.3h-7.7v-15.1l-7.1,10.3h-.2l-7.1-10.2v15H.2V.7Z"/>
        <path class="cls-1" d="M34.9.7h7.7v19.9h13.5v6.4h-21.3s0-26.3,0-26.3Z"/>
        <path class="cls-1" d="M57.3,23.1l4.3-4.8c2.8,2.1,5.8,3.1,9.1,3.1s3.2-.7,3.2-1.8h0c0-1.2-.9-1.8-4.7-2.6-5.9-1.3-10.5-2.9-10.5-8.3h0c0-5,4.1-8.5,10.8-8.5s8.5,1.2,11.5,3.5l-3.9,5.1c-2.6-1.7-5.3-2.6-7.8-2.6s-2.8.8-2.8,1.7h0c0,1.3,1,1.8,4.8,2.6,6.4,1.3,10.4,3.3,10.4,8.2h0c0,5.5-4.5,8.6-11.3,8.6s-9.7-1.5-13.1-4.4h0Z"/>
      </g>
      <g>
        <path class="cls-1" d="M94.6,1.2h9.6c6.7,0,10.5,2.9,10.5,7.7h0c0,5.1-4.1,7.9-10.7,7.9h-8.6v10.1h-.9V1.2h0ZM104.1,16.1c6.1,0,9.8-2.5,9.8-7.1h0c0-4.4-3.6-7.1-9.7-7.1h-8.7v14.2h8.6Z"/>
        <path class="cls-1" d="M121.7,1.2h11.2c3.6,0,6.2.8,7.9,2.4,1.2,1.2,1.9,2.8,1.9,4.8h0c0,4.4-3.7,7-8.9,7.3l9.1,11.3h-1.1l-9.1-11.2h-10.2v11.2h-.9V1.2h0ZM132.5,15c6.3,0,9.4-2.8,9.4-6.5h0c0-4.1-3.4-6.6-9-6.6h-10.2v13.1h9.9,0Z"/>
        <path class="cls-1" d="M149.2,14.1h0c0-7.1,5.3-13.3,13.6-13.3s13.6,6.2,13.6,13.3h0c0,7.1-5.3,13.3-13.6,13.3s-13.6-6.2-13.6-13.3ZM175.5,14.2h0c0-6.6-5.2-12.6-12.8-12.6s-12.7,5.9-12.7,12.5h0c0,6.6,5.2,12.6,12.8,12.6s12.7-5.9,12.7-12.5Z"/>
        <path class="cls-1" d="M184.2,1.2h9.6c6.7,0,10.5,2.9,10.5,7.7h0c0,5.1-4.1,7.9-10.7,7.9h-8.6v10.1h-.9V1.2ZM193.7,16.1c6.1,0,9.8-2.5,9.8-7.1h0c0-4.4-3.6-7.1-9.7-7.1h-8.7v14.2h8.6Z"/>
        <path class="cls-1" d="M211.6,1.2h.9v25.7h-.9V1.2Z"/>
        <path class="cls-1" d="M221.9,1.2h19.1v.7h-18.2v11.7h16.6v.7h-16.6v11.8h18.4v.7h-19.3V1.2Z"/>
        <path class="cls-1" d="M248.6,1.2h8.8c8.6,0,14.5,5.6,14.5,12.8h0c0,7.3-5.9,12.9-14.5,12.9h-8.8V1.2h0ZM257.5,26.3c8,0,13.6-5.3,13.6-12.1h0c0-6.8-5.6-12.2-13.7-12.2h-7.9v24.3h8Z"/>
        <path class="cls-1" d="M288.6,1h.7l13.2,25.9h-.9l-3.9-7.7h-17.4l-3.9,7.7h-.9s13.2-25.9,13.2-25.9ZM297.3,18.5l-8.3-16.4-8.3,16.4h16.6Z"/>
        <path class="cls-1" d="M309,1.2h8.8c8.6,0,14.5,5.6,14.5,12.8h0c0,7.3-5.9,12.9-14.5,12.9h-8.8V1.2ZM317.9,26.3c8,0,13.6-5.3,13.6-12.1h0c0-6.8-5.6-12.2-13.7-12.2h-7.9v24.3h8Z"/>
        <path class="cls-1" d="M340.2,1.2h19.1v.7h-18.2v11.7h16.6v.7h-16.6v11.8h18.4v.7h-19.3V1.2h0Z"/>
        <path class="cls-1" d="M365.1,23.2l.6-.6c2.8,2.5,6.3,4,10.3,4s8.4-2.6,8.4-6.1h0c0-3.2-2-4.9-9-6.2-6.8-1.3-9.3-3.2-9.3-6.8h0c0-3.7,3.8-6.7,8.9-6.7s6.8,1.1,9.3,2.9l-.5.7c-2.4-1.7-5.5-2.9-8.8-2.9-4.8,0-8,2.8-8,5.8h0c0,3.2,2.1,4.9,8.8,6.1,7.1,1.4,9.5,3.4,9.5,6.9h0c0,3.9-3.5,6.9-9.3,6.9s-7.9-1.5-10.8-4.1h0Z"/>
      </g>
    </g>
  </g>
</svg>